# xmcd
#
# Track frame offsets: 
#        150
#        21825
#        43860
#        61126
#        84077
#        105914
#
# Disc length: 1650 seconds
#
# Revision: 0
# Processed by: cddbd v1.5.2PL0 Copyright (c) Steve Scherf et al.
# Submitted via: ExactAudioCopy v1.0b4
#
DISCID=3a067006
DTITLE=Nelly - 6 Derrty Hits
DYEAR=2008
DGENRE=Rap
TTITLE0=Country Grammar
TTITLE1=Ride Wit Me
TTITLE2=Hot In Herre
TTITLE3=Air Force One
TTITLE4=Dillema
TTITLE5=Party People
EXTD=
EXTT0=
EXTT1=
EXTT2=
EXTT3=
EXTT4=
EXTT5=
PLAYORDER=
